<svg width="256" height="256" viewBox="0 0 256 256" fill="none" xmlns="http://www.w3.org/2000/svg">
<rect width="256" height="256" rx="48" fill="#05070D"/>
<rect x="32" y="64" width="16" height="16" fill="#0F5F2B"/>
<rect x="32" y="80" width="16" height="16" fill="#0F5F2B"/>
<rect x="32" y="96" width="16" height="16" fill="#0F5F2B"/>
<rect x="48" y="48" width="16" height="16" fill="#0F5F2B"/>
<rect x="48" y="112" width="16" height="16" fill="#0F5F2B"/>
<rect x="64" y="32" width="16" height="16" fill="#0F5F2B"/>
<rect x="64" y="128" width="16" height="16" fill="#0F5F2B"/>
<rect x="80" y="16" width="16" height="16" fill="#0F5F2B"/>
<rect x="80" y="128" width="16" height="16" fill="#0F5F2B"/>
<rect x="96" y="0" width="16" height="16" fill="#0F5F2B"/>
<rect x="96" y="128" width="16" height="16" fill="#0F5F2B"/>
<rect x="112" y="0" width="16" height="16" fill="#0F5F2B"/>
<rect x="112" y="144" width="16" height="16" fill="#0F5F2B"/>
<rect x="112" y="160" width="16" height="16" fill="#0F5F2B"/>
<rect x="112" y="176" width="16" height="16" fill="#0F5F2B"/>
<rect x="112" y="192" width="16" height="16" fill="#0F5F2B"/>
<rect x="112" y="208" width="16" height="16" fill="#0F5F2B"/>
<rect x="112" y="224" width="16" height="16" fill="#0F5F2B"/>
<rect x="128" y="0" width="16" height="16" fill="#0F5F2B"/>
<rect x="128" y="144" width="16" height="16" fill="#0F5F2B"/>
<rect x="128" y="160" width="16" height="16" fill="#0F5F2B"/>
<rect x="128" y="176" width="16" height="16" fill="#0F5F2B"/>
<rect x="128" y="192" width="16" height="16" fill="#0F5F2B"/>
<rect x="128" y="208" width="16" height="16" fill="#0F5F2B"/>
<rect x="128" y="224" width="16" height="16" fill="#0F5F2B"/>
<rect x="144" y="0" width="16" height="16" fill="#0F5F2B"/>
<rect x="144" y="128" width="16" height="16" fill="#0F5F2B"/>
<rect x="160" y="16" width="16" height="16" fill="#0F5F2B"/>
<rect x="160" y="128" width="16" height="16" fill="#0F5F2B"/>
<rect x="176" y="32" width="16" height="16" fill="#0F5F2B"/>
<rect x="176" y="128" width="16" height="16" fill="#0F5F2B"/>
<rect x="192" y="48" width="16" height="16" fill="#0F5F2B"/>
<rect x="192" y="112" width="16" height="16" fill="#0F5F2B"/>
<rect x="208" y="64" width="16" height="16" fill="#0F5F2B"/>
<rect x="208" y="80" width="16" height="16" fill="#0F5F2B"/>
<rect x="208" y="96" width="16" height="16" fill="#0F5F2B"/>
<rect x="64" y="112" width="16" height="16" fill="#34D399"/>
<rect x="80" y="112" width="16" height="16" fill="#34D399"/>
<rect x="96" y="112" width="16" height="16" fill="#34D399"/>
<rect x="112" y="112" width="16" height="16" fill="#34D399"/>
<rect x="112" y="128" width="16" height="16" fill="#34D399"/>
<rect x="128" y="16" width="16" height="16" fill="#34D399"/>
<rect x="128" y="32" width="16" height="16" fill="#34D399"/>
<rect x="128" y="48" width="16" height="16" fill="#34D399"/>
<rect x="128" y="64" width="16" height="16" fill="#34D399"/>
<rect x="128" y="80" width="16" height="16" fill="#34D399"/>
<rect x="128" y="96" width="16" height="16" fill="#34D399"/>
<rect x="128" y="112" width="16" height="16" fill="#34D399"/>
<rect x="128" y="128" width="16" height="16" fill="#34D399"/>
<rect x="144" y="16" width="16" height="16" fill="#34D399"/>
<rect x="144" y="32" width="16" height="16" fill="#34D399"/>
<rect x="144" y="48" width="16" height="16" fill="#34D399"/>
<rect x="144" y="64" width="16" height="16" fill="#34D399"/>
<rect x="144" y="80" width="16" height="16" fill="#34D399"/>
<rect x="144" y="96" width="16" height="16" fill="#34D399"/>
<rect x="144" y="112" width="16" height="16" fill="#34D399"/>
<rect x="160" y="32" width="16" height="16" fill="#34D399"/>
<rect x="160" y="48" width="16" height="16" fill="#34D399"/>
<rect x="160" y="64" width="16" height="16" fill="#34D399"/>
<rect x="160" y="80" width="16" height="16" fill="#34D399"/>
<rect x="160" y="96" width="16" height="16" fill="#34D399"/>
<rect x="160" y="112" width="16" height="16" fill="#34D399"/>
<rect x="176" y="48" width="16" height="16" fill="#34D399"/>
<rect x="176" y="64" width="16" height="16" fill="#34D399"/>
<rect x="176" y="80" width="16" height="16" fill="#34D399"/>
<rect x="176" y="96" width="16" height="16" fill="#34D399"/>
<rect x="176" y="112" width="16" height="16" fill="#34D399"/>
<rect x="192" y="64" width="16" height="16" fill="#34D399"/>
<rect x="192" y="80" width="16" height="16" fill="#34D399"/>
<rect x="192" y="96" width="16" height="16" fill="#34D399"/>
<rect x="48" y="64" width="16" height="16" fill="#A7F3D0"/>
<rect x="48" y="80" width="16" height="16" fill="#A7F3D0"/>
<rect x="48" y="96" width="16" height="16" fill="#A7F3D0"/>
<rect x="64" y="48" width="16" height="16" fill="#A7F3D0"/>
<rect x="64" y="64" width="16" height="16" fill="#A7F3D0"/>
<rect x="64" y="80" width="16" height="16" fill="#A7F3D0"/>
<rect x="64" y="96" width="16" height="16" fill="#A7F3D0"/>
<rect x="80" y="32" width="16" height="16" fill="#A7F3D0"/>
<rect x="80" y="48" width="16" height="16" fill="#A7F3D0"/>
<rect x="80" y="64" width="16" height="16" fill="#A7F3D0"/>
<rect x="80" y="80" width="16" height="16" fill="#A7F3D0"/>
<rect x="80" y="96" width="16" height="16" fill="#A7F3D0"/>
<rect x="96" y="16" width="16" height="16" fill="#A7F3D0"/>
<rect x="96" y="32" width="16" height="16" fill="#A7F3D0"/>
<rect x="96" y="48" width="16" height="16" fill="#A7F3D0"/>
<rect x="96" y="64" width="16" height="16" fill="#A7F3D0"/>
<rect x="96" y="80" width="16" height="16" fill="#A7F3D0"/>
<rect x="96" y="96" width="16" height="16" fill="#A7F3D0"/>
<rect x="112" y="16" width="16" height="16" fill="#A7F3D0"/>
<rect x="112" y="32" width="16" height="16" fill="#A7F3D0"/>
<rect x="112" y="48" width="16" height="16" fill="#A7F3D0"/>
<rect x="112" y="64" width="16" height="16" fill="#A7F3D0"/>
<rect x="112" y="80" width="16" height="16" fill="#A7F3D0"/>
<rect x="112" y="96" width="16" height="16" fill="#A7F3D0"/>
</svg>