<svg width="1200" height="800" viewBox="0 0 1200 800" fill="none" xmlns="http://www.w3.org/2000/svg">
  <defs>
    <linearGradient id="gradient" x1="0" y1="0" x2="1" y2="1">
      <stop offset="0%" stop-color="#7C3AED" />
      <stop offset="100%" stop-color="#38BDF8" />
    </linearGradient>
    <radialGradient id="glow" cx="0" cy="0" r="1" gradientUnits="userSpaceOnUse" gradientTransform="translate(900 200) rotate(120) scale(420 320)">
      <stop offset="0%" stop-color="#A78BFA" stop-opacity="0.65" />
      <stop offset="100%" stop-color="#0F172A" stop-opacity="0" />
    </radialGradient>
  </defs>
  <rect width="1200" height="800" rx="48" fill="#0B1120" />
  <rect width="1200" height="800" rx="48" fill="url(#glow)" />
  <path d="M120 620C240 520 330 520 450 580C610 660 730 670 890 560C980 500 1060 430 1080 320" stroke="url(#gradient)" stroke-width="12" stroke-linecap="round" />
  <path d="M160 520C260 430 400 410 560 470C700 520 820 520 1000 430" stroke="#1E293B" stroke-width="10" stroke-linecap="round" />
  <rect x="160" y="180" width="360" height="250" rx="26" fill="#111827" stroke="#1F2937" stroke-width="6" />
  <rect x="200" y="220" width="280" height="30" rx="15" fill="#1E293B" />
  <rect x="200" y="270" width="220" height="24" rx="12" fill="#1E293B" />
  <rect x="200" y="310" width="260" height="24" rx="12" fill="#1E293B" />
  <rect x="200" y="350" width="190" height="24" rx="12" fill="#1E293B" />
  <circle cx="870" cy="270" r="110" fill="#111827" stroke="url(#gradient)" stroke-width="10" />
  <path d="M840 270L865 295L910 245" stroke="#F8FAFC" stroke-width="12" stroke-linecap="round" stroke-linejoin="round" />
  <circle cx="960" cy="160" r="12" fill="#38BDF8" />
  <circle cx="760" cy="150" r="8" fill="#7C3AED" />
  <circle cx="1030" cy="320" r="10" fill="#FBBF24" />
</svg>
